<?xml version="1.0" standalone="no"?>
<!DOCTYPE svg PUBLIC "-//W3C//DTD SVG 20010904//EN"
 "http://www.w3.org/TR/2001/REC-SVG-20010904/DTD/svg10.dtd">
<svg version="1.0" xmlns="http://www.w3.org/2000/svg"
 width="1200.000000pt" height="800.000000pt" viewBox="0 0 1200.000000 800.000000"
 preserveAspectRatio="xMidYMid meet">
<metadata>
Created by potrace 1.16, written by Peter Selinger 2001-2019
</metadata>
<g transform="translate(0.000000,800.000000) scale(0.100000,-0.100000)"
fill="#000000" stroke="none">
<path d="M0 6331 l0 -1669 113 -6 c211 -11 522 -15 490 -7 -18 5 -39 13 -45
19 -12 9 -95 35 -108 33 -9 -1 -43 73 -46 100 -3 22 2 29 26 39 44 18 303 49
317 38 6 -5 32 -7 57 -4 33 3 50 0 61 -10 8 -9 26 -17 39 -20 22 -4 23 -2 13
20 -11 22 -18 24 -142 30 -71 4 -188 15 -260 24 l-130 17 -3 63 c-2 38 1 62 8
62 17 0 11 18 -7 23 -10 3 30 5 89 6 88 1 106 4 102 15 -5 13 11 31 30 31 14
0 30 31 23 47 -3 10 -26 18 -67 22 -34 4 -68 10 -76 13 -19 7 -18 37 2 54 14
11 18 10 30 -5 7 -11 11 -23 8 -27 -3 -5 12 -9 33 -9 l38 1 -30 14 c-29 13
-30 13 -5 14 19 1 21 4 11 10 -8 5 -19 7 -26 5 -6 -3 -17 7 -23 20 -10 22 -9
27 9 36 10 6 24 8 29 5 22 -14 17 15 -6 32 l-25 19 38 2 c21 2 48 9 60 17 12
8 29 15 38 15 18 0 20 24 3 38 -7 5 -30 15 -50 23 -24 8 -38 19 -38 30 0 23
67 34 153 25 34 -3 77 -6 96 -6 18 1 38 -3 45 -8 24 -20 374 -77 422 -69 19 3
34 2 34 -4 0 -5 4 -9 9 -9 11 0 20 59 10 66 -5 2 -6 11 -2 19 3 8 0 15 -6 15
-6 0 -11 -7 -11 -15 0 -8 -4 -15 -10 -15 -5 0 -10 16 -10 35 0 27 -6 37 -27
49 -16 9 -22 16 -13 16 23 2 -29 20 -90 32 -52 10 -74 13 -146 22 -17 2 -40 7
-52 10 -14 5 -22 3 -22 -4 0 -6 -5 -8 -10 -5 -6 4 -8 10 -6 14 3 3 -4 7 -14 7
-10 0 -18 -3 -18 -6 0 -3 0 -14 -1 -25 -2 -16 -4 -14 -16 10 -12 27 -13 28
-14 8 -1 -30 -16 -29 -43 2 -12 14 -29 25 -38 25 -10 0 -41 10 -69 22 -71 29
-53 45 57 52 46 3 87 8 93 11 5 4 9 -4 10 -17 1 -23 1 -23 9 2 l7 25 11 -25
c9 -22 11 -23 12 -5 1 11 4 14 7 7 2 -6 9 -10 14 -7 5 4 7 0 4 -7 -8 -20 132
-57 315 -83 137 -19 182 -28 315 -59 61 -14 126 -27 145 -29 20 -2 40 -5 45
-8 6 -3 24 -6 42 -8 25 -2 32 2 35 19 2 11 7 19 13 18 5 -2 8 -12 7 -23 l-4
-20 17 20 c11 14 18 16 21 7 3 -6 10 -10 15 -6 5 3 9 -6 9 -20 0 -22 5 -26 28
-26 15 0 33 -4 41 -9 29 -19 -91 -23 -178 -7 -100 19 -94 19 -85 4 4 -7 -2 -5
-12 4 -16 14 -35 17 -88 14 -39 -2 -62 1 -54 5 10 7 9 9 -4 9 -24 0 -31 -17
-36 -86 l-3 -61 78 -16 c43 -9 96 -19 118 -21 22 -3 51 -7 65 -10 14 -2 48 -7
75 -11 100 -12 225 -48 226 -64 0 -12 3 -10 9 4 7 15 9 16 9 4 1 -9 -6 -22
-14 -29 -9 -7 -15 -8 -15 -2 0 5 -9 8 -20 5 -20 -5 -28 -23 -10 -23 5 0 7 -7
3 -16 -3 -9 -1 -19 4 -23 13 -8 27 -52 16 -49 -17 4 -73 -14 -68 -22 3 -5 3
-21 -1 -35 -5 -21 -12 -25 -43 -26 -30 0 -25 -3 28 -14 80 -18 93 -23 60 -24
-24 -1 -27 -5 -31 -45 -3 -49 -7 -46 87 -65 l40 -8 -47 -2 c-28 0 -48 -6 -48
-12 0 -6 9 -9 20 -6 13 3 20 0 20 -8 0 -7 -8 -12 -17 -10 -25 4 -38 -6 -22
-16 11 -7 10 -9 -3 -9 -10 0 -18 -4 -18 -8 0 -5 -17 -13 -37 -19 l-38 -10 35
0 c47 -1 143 -20 110 -23 -65 -5 -162 1 -230 14 l-75 14 55 2 c30 1 66 5 80 9
24 7 23 8 -12 15 -33 6 -36 9 -32 33 3 15 7 30 9 34 8 13 -55 32 -85 25 -17
-3 -30 -1 -30 4 0 6 27 10 59 10 56 0 59 1 57 23 -3 33 -15 48 -34 45 -10 -2
-16 3 -14 11 2 8 -3 11 -12 8 -10 -4 -13 -1 -9 9 3 7 8 14 12 15 18 2 44 8 59
14 15 6 15 8 -2 21 -11 8 -31 15 -45 15 -17 1 -20 3 -8 6 29 8 19 21 -23 28
-22 4 -40 11 -40 17 0 6 8 7 18 3 13 -5 14 -3 5 6 -17 17 -42 4 -36 -19 6 -24
-16 -40 -27 -21 -5 7 -4 21 1 31 7 14 6 18 -5 18 -8 0 -17 -8 -19 -17 -3 -13
-5 -11 -6 6 -1 19 -4 21 -15 12 -10 -9 -15 -8 -20 4 -4 10 -19 15 -48 15 -25
0 -38 -4 -31 -8 9 -6 7 -12 -7 -25 -11 -9 -20 -25 -20 -36 0 -11 -6 -22 -12
-25 -7 -4 -3 -4 10 -2 33 6 27 -12 -13 -35 -19 -12 -35 -26 -35 -31 0 -6 6 -5
15 2 31 26 63 -18 34 -47 -8 -8 1 -13 37 -18 64 -9 86 -17 57 -22 -18 -4 -22
-12 -25 -46 -2 -34 -7 -42 -28 -48 -14 -4 -20 -8 -15 -8 6 -1 33 -8 60 -17
l50 -14 -98 5 c-67 4 -108 2 -133 -7 -29 -10 -37 -10 -43 1 -7 11 -15 11 -41
2 -40 -13 -40 -13 -40 -1 0 6 10 11 23 11 37 2 -181 27 -303 34 -63 4 -118 9
-121 11 -11 6 -19 -40 -9 -50 16 -16 48 -17 54 -1 7 19 36 8 36 -15 0 -12 7
-17 22 -16 17 1 23 7 23 26 0 15 7 26 18 28 12 3 17 -3 17 -21 0 -14 -6 -28
-12 -30 -7 -3 10 -6 37 -6 28 -1 68 -4 89 -8 23 -3 37 -2 34 3 -7 10 -2 10
125 15 65 3 90 0 96 -9 4 -8 14 -12 22 -11 8 1 27 -3 42 -9 16 -7 33 -12 38
-12 5 0 9 -4 9 -10 0 -5 7 -10 15 -10 9 0 26 -7 39 -15 30 -20 64 -14 88 15
13 17 22 20 30 12 13 -13 0 -35 -17 -28 -7 2 -16 -2 -19 -9 -7 -18 10 -30 18
-13 5 10 7 10 12 1 3 -7 18 -12 32 -12 24 2 24 2 5 6 -13 2 -23 9 -23 15 0 5
6 8 14 5 7 -3 19 0 25 6 8 8 11 8 11 -2 0 -10 3 -11 14 -2 7 6 40 14 72 17 58
6 92 -1 179 -37 17 -7 38 -11 47 -10 13 2 16 -5 14 -26 -3 -21 2 -30 18 -35
21 -6 21 -6 -1 -7 -26 -1 -32 -21 -6 -21 15 0 14 -2 -3 -15 -18 -14 -18 -14
11 -15 17 0 74 -3 128 -6 69 -5 97 -3 97 5 0 6 -4 11 -9 11 -10 0 -8 40 3 58
8 13 47 15 83 6 40 -11 40 -57 0 -70 -22 -7 -21 -8 3 -15 14 -4 62 -7 108 -8
l83 -1 -18 24 c-10 13 -19 20 -21 15 -2 -5 -12 -4 -23 1 -15 9 -19 7 -20 -7 0
-12 -4 -8 -11 10 -6 16 -14 24 -21 20 -7 -4 -6 1 2 10 7 9 27 17 43 17 26 0
29 -2 18 -15 -9 -10 -9 -15 -1 -15 6 0 11 4 11 9 0 15 81 52 101 46 10 -4 19
-11 19 -16 0 -5 5 -9 11 -9 8 0 8 4 0 14 -8 10 -9 16 -1 21 16 10 28 -3 24
-28 -2 -12 -1 -16 2 -9 5 10 9 10 20 1 11 -9 14 -7 14 10 0 11 5 21 10 21 6 0
10 -8 10 -19 0 -16 6 -18 43 -15 23 1 57 6 74 10 21 4 47 0 73 -10 23 -9 100
-20 182 -27 79 -5 145 -12 147 -15 2 -2 -7 -4 -21 -4 -18 0 -27 -7 -32 -22
-10 -40 -7 -47 27 -51 31 -4 31 -4 -5 -5 -32 -2 -38 -6 -39 -24 -2 -60 -18
-90 -20 -37 -1 19 -1 40 0 47 1 9 -25 12 -103 12 l-105 0 9 -27 c4 -16 11 -35
14 -44 4 -9 1 -21 -6 -27 -9 -7 -12 -26 -10 -51 3 -34 8 -41 26 -41 22 0 80
-39 59 -40 -7 0 -13 -5 -13 -11 0 -6 -7 -17 -15 -25 -13 -14 -15 -14 -15 0 0
18 -25 22 -35 6 -13 -22 -13 -50 0 -50 23 0 29 -22 10 -37 -17 -12 -17 -13 -2
-13 10 0 20 7 24 15 5 14 8 14 31 -1 27 -18 46 -18 431 -5 l194 6 12 58 c20
101 48 101 61 0 l6 -53 78 0 79 0 -6 53 c-3 38 -1 57 11 72 13 17 17 18 26 5
5 -8 10 -40 11 -70 l1 -55 9 60 c10 68 31 99 47 69 5 -11 13 -42 16 -69 l7
-50 45 3 c43 4 44 5 44 37 0 49 16 52 24 4 l6 -40 48 3 c46 3 47 4 53 41 3 20
9 40 12 43 14 15 30 -56 29 -128 -1 -62 2 -78 13 -78 18 0 29 40 22 77 -4 23
2 49 28 122 16 42 55 -63 55 -146 l0 -53 58 0 c62 0 57 -14 -10 -25 -42 -7
-48 -19 -47 -85 1 -25 -4 -67 -10 -93 -6 -27 -9 -52 -6 -56 7 -12 -29 -41 -41
-33 -6 4 -14 25 -18 47 -17 102 -13 96 -59 88 -23 -3 -44 -9 -47 -12 -3 -3
-22 -15 -42 -26 -20 -10 -39 -26 -42 -34 -16 -46 -48 -87 -74 -92 -61 -14 -79
-11 -85 18 -3 15 -1 37 4 50 7 20 5 23 -14 24 -17 1 -18 2 -4 6 21 5 23 23 2
23 -23 0 -18 17 8 23 38 10 256 37 296 37 22 0 41 5 44 13 7 19 -4 77 -14 71
-5 -3 -9 1 -10 8 0 7 -5 -2 -10 -19 -12 -41 -27 -42 -40 -3 -10 27 -15 30 -54
30 -43 0 -44 -1 -47 -37 -4 -52 -28 -56 -28 -4 l0 41 -43 -2 -44 -2 -14 -54
c-15 -59 -28 -67 -46 -31 -12 23 -13 23 -13 3 0 -26 -24 -48 -45 -40 -17 6
-20 59 -5 120 5 22 6 62 3 89 l-6 49 -71 -7 c-39 -4 -73 -9 -76 -12 -3 -2 -6
-37 -7 -76 -3 -113 -17 -177 -38 -177 -21 0 -27 28 -33 148 l-5 112 -37 0
c-21 0 -67 -9 -102 -20 -34 -11 -74 -20 -88 -20 -18 0 -21 -3 -11 -9 11 -7 11
-9 0 -14 -13 -4 -4 -10 39 -23 23 -7 12 -29 -23 -45 -26 -12 -46 -14 -86 -8
-60 10 -69 6 -69 -25 0 -19 -5 -23 -30 -23 -16 0 -30 4 -30 8 0 4 -8 6 -17 5
-10 0 -18 4 -18 9 -1 18 -16 35 -26 30 -5 -4 -9 -21 -9 -40 0 -68 -23 -87 -39
-32 l-9 32 -1 -31 c-1 -33 33 -74 61 -74 9 0 43 7 75 15 64 16 245 24 281 12
43 -16 16 -65 -43 -80 -14 -3 -11 -5 10 -6 26 -1 28 -3 12 -12 -10 -6 -41 -9
-67 -7 -30 3 -47 1 -43 -5 3 -6 -9 -7 -33 -2 -22 3 -57 8 -79 9 -22 1 -46 5
-53 10 -15 9 -52 -2 -52 -15 0 -6 -4 -8 -9 -5 -16 10 -36 -38 -35 -84 1 -25
-4 -48 -10 -52 -7 -5 -5 -8 7 -8 9 0 17 -4 17 -10 0 -5 -5 -10 -10 -10 -11 0
-4 -63 8 -85 3 -5 7 -18 7 -27 2 -29 12 -32 57 -17 43 13 53 16 75 18 9 1 11
14 7 45 -4 25 -3 53 1 63 5 10 9 22 9 28 1 5 9 11 19 13 15 3 17 -5 17 -62 l0
-66 33 0 c90 0 117 23 132 112 12 75 37 59 56 -34 6 -32 12 -58 13 -58 14 0
353 54 402 64 104 21 194 29 194 17 0 -12 -136 -55 -241 -77 -41 -8 -137 -29
-214 -47 -135 -32 -140 -34 -143 -60 -2 -15 -1 -27 3 -27 3 0 89 16 191 35
101 19 186 35 187 35 2 0 3 -18 4 -39 1 -38 0 -39 -46 -49 -225 -47 -338 -76
-348 -90 -7 -9 -13 -25 -13 -36 0 -11 -10 -30 -22 -43 -20 -21 -21 -28 -12
-82 5 -33 7 -68 4 -78 -4 -12 -33 -27 -81 -43 -58 -20 -74 -29 -75 -45 -2 -34
-16 -75 -24 -70 -13 8 -18 53 -7 64 16 16 -29 14 -89 -3 -27 -8 -76 -22 -108
-31 -53 -15 -57 -18 -44 -32 12 -12 20 -13 36 -4 17 9 23 7 36 -11 19 -27 6
-55 -32 -64 -15 -4 -35 -13 -44 -22 -11 -9 -28 -13 -46 -9 -21 4 -35 0 -51
-14 -16 -15 -29 -18 -54 -14 -25 5 -37 2 -51 -14 -23 -25 -34 -26 -58 -4 -12
11 -34 17 -58 16 -50 -2 -62 14 -17 22 19 4 49 20 68 36 31 26 35 27 56 14 31
-20 38 -19 67 12 35 37 16 45 -53 23 -113 -36 -381 -103 -387 -97 -9 9 -6 99
3 108 4 4 73 24 153 44 80 19 156 40 170 44 14 5 51 14 83 21 61 12 90 32 81
55 -4 8 -1 15 5 15 6 0 11 9 11 20 0 11 6 20 14 20 8 0 18 4 21 10 4 7 -3 7
-20 0 -15 -6 -36 -10 -49 -10 -16 0 -25 -9 -34 -34 -16 -43 -68 -61 -86 -30
-18 33 -18 75 0 95 16 18 16 19 -2 19 -18 0 -18 2 2 18 17 13 21 24 17 50 -5
29 -9 32 -42 33 l-36 1 38 10 c22 6 37 16 37 25 0 13 -9 14 -52 9 -61 -8 -105
-27 -98 -41 3 -6 16 -9 30 -8 23 1 22 0 -7 -15 -25 -12 -33 -22 -33 -42 0 -14
-6 -32 -12 -39 -7 -7 -8 -11 -3 -9 16 5 17 -4 10 -52 -3 -25 -7 -53 -9 -62 -3
-27 -37 -58 -60 -56 -12 1 -36 -4 -53 -11 -48 -20 -77 -12 -80 23 -1 16 5 42
12 57 19 36 19 39 -2 39 -16 1 -15 2 3 13 16 10 19 20 17 52 -2 21 -9 43 -16
47 -9 6 -9 8 1 8 6 0 12 9 12 20 0 26 -24 26 -137 -1 -96 -23 -107 -28 -109
-46 -1 -7 -2 -20 -2 -28 -1 -8 -10 -15 -20 -15 -37 0 -52 -23 -58 -90 -3 -36
-10 -80 -16 -98 -8 -28 -14 -33 -36 -30 -21 2 -28 9 -30 31 -4 29 12 37 22 12
16 -43 46 18 46 96 0 52 -2 57 -24 61 -31 6 -46 -19 -47 -79 l-1 -48 -10 40
c-5 22 -11 50 -13 61 -3 12 -12 25 -21 28 -13 5 -14 4 -5 -7 9 -12 1 -16 -46
-25 -94 -18 -161 -23 -140 -11 22 13 24 54 1 45 -9 -3 -27 -6 -40 -6 -13 0
-24 -4 -24 -10 0 -5 7 -10 15 -10 8 0 15 -4 15 -10 0 -5 -8 -10 -17 -10 -16 0
-16 -2 -3 -11 13 -9 13 -10 -2 -6 -9 3 -19 1 -21 -6 -3 -9 -8 -8 -21 2 -14 12
-16 12 -10 -3 3 -9 1 -16 -5 -16 -6 0 -12 -12 -12 -27 -2 -24 -2 -25 -6 -5 -6
32 -41 29 -49 -4 l-7 -27 -11 25 -11 25 -85 -19 c-87 -21 -114 -33 -104 -49 3
-5 1 -9 -4 -9 -6 0 -12 6 -15 14 -3 8 -14 13 -24 11 -79 -16 -170 -39 -178
-45 -5 -5 -41 -11 -80 -15 -38 -4 -74 -11 -80 -15 -5 -4 -37 -10 -70 -14 -89
-9 -100 -14 -114 -52 -7 -19 -16 -32 -21 -29 -5 3 -11 1 -15 -5 -3 -5 3 -10
14 -10 30 0 31 -69 1 -77 -11 -3 -20 -9 -20 -14 0 -13 -78 -11 -86 2 -4 8 -9
7 -15 -2 -7 -11 -9 -11 -9 1 0 8 16 28 35 43 19 15 35 32 35 36 0 13 -68 19
-80 7 -12 -12 -50 -16 -50 -5 0 18 -42 20 -61 4 -16 -16 -19 -16 -25 -2 -4 12
-15 14 -42 10 -20 -3 -44 -9 -52 -14 -9 -4 -34 -10 -55 -13 -22 -4 -92 -20
-155 -36 -63 -17 -124 -32 -135 -34 -122 -24 -213 -44 -267 -62 -17 -5 -18
-24 -18 -250 0 -229 1 -245 18 -240 59 17 105 27 108 23 3 -3 -8 -8 -23 -11
-100 -24 -103 -26 -103 -52 0 -25 1 -26 52 -19 29 4 85 13 123 21 39 8 80 14
91 14 12 0 24 6 27 14 5 11 46 23 112 32 75 9 158 25 173 33 49 26 189 38 209
18 8 -9 -45 -56 -64 -57 -11 0 -73 -30 -83 -40 -3 -3 -17 -11 -32 -19 -21 -11
-31 -11 -41 -3 -21 18 -68 -27 -53 -50 14 -23 -11 -53 -30 -37 -16 13 -19 39
-4 39 6 0 10 5 10 10 0 16 -18 12 -38 -8 -10 -10 -24 -16 -30 -14 -7 2 -12 -1
-12 -8 0 -6 -4 -9 -9 -6 -5 3 -28 -1 -52 -9 -23 -9 -51 -13 -61 -9 -10 3 -18
0 -18 -6 0 -7 -7 -10 -15 -6 -8 3 -15 1 -15 -3 0 -5 -11 -8 -25 -6 -14 1 -28
-1 -30 -5 -3 -5 -29 -14 -57 -20 -29 -7 -70 -21 -91 -32 l-37 -18 0 -960 0
-960 3980 0 c2189 0 3980 2 3980 4 0 3 -30 27 -67 55 -117 87 -136 103 -223
191 -89 90 -130 140 -130 162 0 7 -7 22 -16 33 -8 11 -19 36 -24 57 -6 20 -17
44 -25 52 -10 9 -13 28 -10 55 3 38 0 44 -55 99 -32 32 -71 67 -86 77 -109 71
-174 173 -174 274 0 45 -2 48 -40 70 -50 28 -58 56 -62 218 -2 105 0 125 14
140 17 16 19 16 41 -5 13 -12 28 -22 34 -22 5 0 18 -9 28 -20 10 -11 36 -25
57 -32 21 -6 38 -15 38 -20 0 -4 9 -8 19 -8 11 0 38 -16 61 -35 23 -19 46 -35
51 -35 5 0 18 -18 29 -40 15 -30 20 -59 20 -126 0 -85 1 -87 19 -70 18 16 21
16 52 -3 19 -12 42 -21 52 -21 11 0 37 -16 60 -35 30 -26 43 -32 49 -23 6 10
8 10 8 1 0 -7 8 -13 18 -13 9 0 29 -11 44 -25 15 -14 34 -25 42 -25 8 0 17 -4
21 -9 3 -5 20 -13 38 -17 17 -3 65 -24 106 -46 58 -31 88 -41 143 -45 38 -3
65 -9 59 -13 -6 -3 5 -6 24 -7 19 -1 35 4 35 9 0 13 99 5 109 -8 3 -5 17 -15
31 -21 49 -24 155 -85 171 -99 8 -8 19 -14 23 -14 4 0 22 -11 40 -25 18 -14
36 -25 39 -25 7 0 72 -42 111 -73 16 -12 40 -29 55 -37 72 -42 91 -56 91 -67
0 -7 4 -13 9 -13 5 0 19 -11 32 -25 13 -13 29 -25 36 -25 6 0 14 -8 17 -18 4
-10 20 -28 36 -40 17 -13 30 -29 30 -36 0 -8 6 -16 13 -19 8 -3 26 -29 40 -59
15 -30 45 -74 67 -98 22 -24 40 -47 40 -52 0 -4 6 -8 14 -8 7 0 16 -9 19 -20
5 -20 14 -20 1386 -20 l1381 0 0 883 0 884 -42 11 c-144 38 -187 51 -218 66
-20 9 -65 22 -101 30 -36 7 -75 19 -86 25 -25 13 -61 56 -86 101 -16 31 -19
32 -36 16 -9 -9 -23 -16 -29 -16 -7 0 -12 -4 -12 -9 0 -30 -174 -10 -230 27
-44 30 -81 42 -124 42 -22 0 -70 11 -106 23 -36 13 -98 32 -138 42 -60 16 -81
27 -117 63 l-45 44 -31 -22 c-29 -21 -32 -22 -67 -6 -20 8 -58 21 -85 27 -33
8 -55 21 -72 43 -51 63 -47 60 -65 36 -15 -20 -23 -22 -63 -16 -25 4 -61 14
-78 23 -27 14 -37 14 -63 4 -77 -32 -106 -19 -148 62 -15 30 -23 37 -36 31
-24 -10 -48 -8 -117 10 -49 12 -67 23 -96 57 -33 38 -37 41 -46 24 -9 -14 -18
-17 -49 -12 -162 27 -183 36 -210 90 -9 17 -18 33 -19 35 -1 2 -19 -7 -39 -18
-34 -21 -37 -21 -86 -5 -46 15 -76 41 -106 91 -11 18 -13 17 -22 -7 -16 -39
-54 -42 -100 -8 -20 16 -47 29 -59 29 -13 0 -23 5 -23 11 0 6 -9 9 -19 6 -10
-2 -25 -1 -32 4 -8 4 -19 3 -26 -3 -10 -8 -18 -6 -31 6 -10 9 -25 16 -34 16
-27 0 -76 30 -94 58 -30 46 -47 54 -66 32 -34 -41 -83 -22 -127 50 -36 59 -38
78 -10 114 19 24 22 25 47 12 15 -7 39 -16 53 -19 17 -4 31 -18 39 -36 14 -34
32 -32 65 7 l20 24 64 -22 c35 -12 74 -28 88 -35 13 -7 41 -11 61 -8 30 4 44
-1 73 -24 46 -35 109 -124 110 -155 0 -12 6 7 13 44 7 38 17 73 23 79 17 17
69 13 99 -7 16 -11 42 -26 58 -34 16 -8 33 -25 39 -37 14 -30 23 -29 32 4 3
15 14 32 23 39 14 11 22 8 47 -15 37 -35 86 -52 126 -44 34 7 64 -15 82 -60
l12 -28 22 20 c21 20 27 20 88 6 81 -19 128 -40 142 -61 18 -28 30 -30 55 -7
16 15 23 15 55 4 20 -8 60 -13 88 -12 40 1 56 -4 70 -19 10 -11 25 -20 34 -20
17 0 32 -15 63 -59 l17 -24 12 27 c15 31 43 40 105 33 31 -3 52 -12 67 -30 12
-13 36 -28 52 -31 17 -4 44 -21 61 -37 31 -30 31 -30 61 -12 32 18 51 15 145
-19 16 -6 40 -7 55 -2 43 12 76 12 98 0 26 -13 42 -17 85 -20 59 -4 119 -26
148 -54 26 -25 94 -53 166 -67 17 -4 45 -22 63 -42 24 -25 38 -33 51 -27 32
14 47 14 134 3 60 -8 92 -9 100 -2 35 28 56 24 107 -21 43 -39 124 -76 163
-76 4 0 8 79 8 175 0 110 -4 175 -10 175 -5 0 -10 9 -10 19 0 11 5 23 10 26 6
4 10 61 10 138 l0 132 -48 25 c-60 32 -100 102 -85 153 11 42 68 80 106 73
l27 -5 0 262 c0 144 -4 257 -8 250 -5 -8 -13 -9 -22 -3 -22 14 -21 449 0 475
14 17 15 16 21 -11 4 -18 7 -2 8 45 1 59 -2 72 -13 68 -22 -9 -39 19 -32 49 5
20 12 25 26 21 19 -5 20 0 20 75 0 45 -4 77 -9 73 -14 -8 -41 23 -41 46 0 14
-6 19 -17 18 -10 -2 -31 1 -48 4 -55 13 -105 119 -84 175 7 17 6 29 -1 36 -13
13 -13 53 1 61 5 4 18 0 27 -8 15 -13 20 -14 36 -1 26 19 90 18 106 -1 7 -8
16 -15 21 -15 5 0 9 719 9 1670 l0 1670 -539 0 c-504 0 -539 -1 -546 -17 -6
-17 -7 -17 -19 0 -12 16 -99 17 -1574 17 l-1561 0 -15 -28 c-8 -16 -31 -39
-51 -53 -19 -13 -45 -39 -56 -58 -15 -25 -23 -30 -32 -22 -16 12 -87 -21 -144
-68 -21 -17 -45 -31 -55 -31 -39 0 -47 153 -12 222 8 15 14 29 14 33 0 3
-1667 5 -3705 5 l-3705 0 0 -1669z m7195 1569 c8 -13 8 -39 1 -700 -11 -1060
-20 -1544 -27 -1512 -6 28 -18 939 -25 1817 -1 149 -4 286 -7 306 -8 54 37
123 58 89z m-75 -62 c0 -3 -6 -8 -12 -10 -10 -4 -14 -131 -19 -559 -14 -1138
-22 -1611 -29 -1598 -6 12 -31 1460 -32 1874 0 189 -1 215 -10 215 -5 0 -8 -6
-8 -14 0 -8 -6 -16 -12 -18 -10 -4 -14 -54 -15 -199 -1 -107 -8 -626 -15
-1154 -13 -957 -13 -959 -20 -585 -5 206 -11 715 -16 1130 -8 785 -5 841 32
848 10 2 34 21 54 41 29 30 44 38 69 37 18 -1 33 -4 33 -8z m720 -85 c0 -40 1
-42 45 -56 26 -9 47 -12 50 -6 21 33 44 -46 24 -83 -14 -28 -151 -156 -189
-177 -61 -35 -110 -72 -126 -96 -9 -15 -23 -24 -30 -21 -21 8 -86 -16 -138
-51 -79 -54 -92 -46 -103 57 -6 65 -25 74 -62 30 -21 -25 -21 -25 -37 -5 -12
16 -15 39 -12 111 4 103 24 150 60 141 11 -3 25 -2 32 3 67 55 77 61 95 55 12
-3 21 0 25 10 3 8 34 28 68 44 95 43 107 46 124 24 13 -17 15 -17 33 7 45 58
50 60 96 58 l45 -3 0 -42z m-115 -543 c8 -16 14 -50 13 -74 -1 -45 14 -76 37
-76 7 0 15 6 18 14 3 7 20 16 38 20 27 5 37 2 49 -14 8 -11 26 -21 40 -23 27
-4 36 -24 20 -47 -8 -12 -12 -12 -18 -2 -7 10 -13 7 -25 -12 -10 -14 -17 -30
-17 -35 0 -6 -13 -17 -30 -26 -40 -20 -38 -29 4 -22 34 5 34 5 41 -39 9 -62
-9 -93 -74 -126 -29 -15 -58 -29 -64 -31 -6 -2 -7 -14 -2 -33 5 -18 10 -23 12
-13 5 21 39 37 83 41 l35 3 0 -55 0 -55 -45 -22 c-25 -12 -67 -31 -93 -43 -56
-24 -58 -47 -4 -42 32 3 36 1 42 -27 4 -17 4 -44 0 -61 -5 -24 -15 -32 -61
-50 -30 -11 -60 -20 -67 -20 -7 0 -18 -5 -25 -12 -9 -9 -15 -9 -23 -1 -8 8
-16 6 -30 -8 -10 -10 -25 -19 -33 -19 -8 0 -18 -9 -21 -20 -7 -23 -21 -26 -28
-7 -5 15 -13 9 -21 -20 -9 -28 1 -29 70 -8 61 18 72 9 54 -47 -17 -50 -27 -60
-57 -53 -13 3 -23 1 -23 -5 0 -17 -18 -11 -23 8 -4 13 -5 12 -6 -5 -1 -26 -5
-29 -54 -38 l-37 -7 0 51 c0 40 4 52 19 61 16 8 19 17 14 43 -3 23 0 39 11 50
9 8 16 28 17 44 1 50 13 65 73 87 32 12 57 26 55 31 -2 6 -11 9 -19 7 -8 -1
-28 -4 -44 -7 -16 -2 -36 -11 -45 -19 -9 -7 -25 -17 -37 -20 -18 -6 -22 -17
-27 -77 -3 -39 -11 -77 -17 -84 -14 -17 -99 -47 -111 -39 -5 3 -9 29 -9 58 0
38 5 59 19 75 11 13 21 27 23 31 2 5 15 10 30 12 15 2 30 7 34 11 9 9 7 327
-2 386 -4 25 -13 55 -19 68 -11 21 -14 22 -25 8 -23 -28 -51 -39 -61 -24 -13
21 -10 191 4 219 7 13 25 31 40 40 24 13 29 13 37 0 5 -8 10 -28 11 -45 0 -30
0 -30 18 10 22 49 31 56 101 86 30 12 63 29 74 38 19 17 126 50 139 44 4 -3
14 -17 22 -33z m3115 -570 c13 -7 21 -7 25 0 4 6 10 8 14 5 5 -2 31 -5 59 -6
35 -2 49 -6 45 -15 -2 -6 0 -15 6 -19 7 -3 11 3 11 15 0 15 5 20 18 18 13 -3
17 -13 15 -43 -1 -22 1 -32 3 -23 6 19 39 33 67 29 9 -1 17 4 17 12 0 29 100
-5 119 -41 13 -26 1 -81 -20 -93 -11 -5 -19 -6 -19 -2 0 4 -12 -8 -27 -27 -64
-79 -96 -110 -114 -110 -11 0 -19 -6 -19 -14 0 -15 -24 -28 -34 -19 -3 4 -6
18 -6 32 0 18 -3 22 -11 14 -9 -9 -16 -9 -29 0 -27 16 -93 -7 -127 -46 -39
-45 -96 -62 -159 -49 -46 10 -103 6 -114 -7 -3 -3 -22 -19 -43 -34 -39 -30
-69 -32 -163 -12 -31 7 -47 1 -119 -45 -39 -25 -59 -24 -111 1 l-43 22 -69
-42 c-37 -22 -78 -41 -89 -41 -27 0 -85 68 -79 93 2 9 0 17 -4 17 -5 0 -6 21
-4 48 3 26 5 57 5 70 -1 12 3 22 8 22 12 0 26 37 30 78 1 14 31 17 31 2 0 -5
30 2 68 16 37 15 87 30 112 35 92 17 106 21 145 38 76 35 96 41 137 41 41 0
57 3 153 34 28 9 84 16 130 16 83 0 155 14 155 30 0 13 7 12 30 0z m-3090
-356 c0 -19 5 -34 10 -34 6 0 10 11 10 25 0 19 8 28 33 38 17 8 34 10 35 5 2
-5 11 -3 19 3 12 10 16 10 24 -2 5 -8 7 -20 4 -27 -3 -8 -5 -20 -5 -28 0 -8
-8 -18 -17 -21 -10 -4 -21 -11 -24 -16 -4 -5 -21 -10 -38 -11 -17 0 -31 -4
-31 -8 0 -4 -16 -10 -35 -14 -19 -3 -38 -10 -41 -15 -3 -5 -13 -9 -22 -9 -10
0 -22 -10 -27 -22 -13 -30 -45 -36 -45 -9 0 11 6 24 14 28 9 5 16 28 18 58 3
50 3 50 45 59 28 6 43 15 46 28 8 31 27 11 27 -28z m493 -61 c3 -10 8 -36 12
-58 l7 -39 18 23 c16 22 22 24 78 18 41 -5 71 -2 93 7 42 18 111 3 101 -22 -4
-11 1 -10 18 6 33 30 62 28 83 -7 32 -54 15 -112 -57 -189 -28 -30 -33 -32
-79 -26 -43 6 -51 4 -77 -21 -30 -29 -99 -44 -101 -21 -1 6 -4 -2 -8 -19 -4
-21 -13 -31 -28 -33 -24 -4 -45 -63 -24 -70 15 -5 3 -22 -16 -22 -12 0 -14 8
-9 43 5 35 3 47 -11 58 -11 9 -14 10 -9 2 4 -7 4 -13 1 -13 -10 0 -50 41 -51
53 -1 7 -2 18 -3 25 -1 9 -11 11 -36 6 -29 -5 -34 -4 -29 9 3 8 1 17 -3 20 -5
3 -9 -15 -10 -39 -1 -25 -7 -52 -14 -60 -9 -11 -8 -14 7 -16 34 -2 69 3 81 14
21 17 27 -17 12 -66 -7 -25 -17 -42 -22 -39 -5 3 -13 -1 -18 -8 -4 -7 -12 -10
-16 -5 -4 5 -2 11 5 13 6 3 12 20 12 39 0 21 -4 33 -10 29 -5 -3 -10 -17 -10
-30 0 -13 -3 -31 -6 -39 -6 -15 -8 -15 -20 1 -11 15 -13 15 -8 2 3 -10 -1 -19
-10 -22 -9 -4 -16 -2 -16 4 0 6 -7 3 -16 -5 -20 -21 -64 -21 -64 -1 0 21 -18
19 -23 -2 -3 -10 -5 -3 -6 15 -1 20 -6 32 -15 32 -7 0 -16 13 -18 29 -3 23 -1
27 13 24 9 -3 20 0 23 6 7 11 -1 11 -116 -5 -27 -3 -50 -10 -54 -15 -3 -5 -13
-9 -24 -9 -10 0 -21 -7 -24 -16 -3 -9 -15 -14 -28 -12 -17 2 -22 -1 -20 -14 2
-10 -2 -18 -8 -18 -5 0 -10 10 -10 23 0 18 -2 19 -10 7 -8 -12 -10 -8 -11 15
-1 17 -3 22 -6 13 -6 -22 -42 -33 -57 -18 -8 10 -8 14 2 17 6 3 9 9 6 15 -4 7
-9 6 -14 -1 -4 -7 -18 -13 -31 -15 -14 -1 -30 -6 -37 -10 -8 -5 -16 1 -21 16
-10 23 -10 23 -10 1 -1 -17 -10 -25 -38 -32 -47 -13 -53 -8 -53 41 0 31 4 41
20 45 13 3 20 14 20 28 0 18 4 21 25 17 18 -3 25 0 25 12 0 13 5 14 26 5 15
-5 29 -7 32 -4 3 3 0 5 -6 5 -7 0 -12 5 -12 10 0 6 9 10 20 10 11 0 20 5 20
11 0 6 -6 9 -14 6 -8 -3 -17 -1 -20 6 -3 8 -5 6 -5 -3 -1 -9 -12 -15 -28 -16
-16 -1 -45 -5 -65 -9 l-38 -8 0 42 c0 34 6 49 29 72 33 32 41 35 41 15 0 -11
12 -10 64 4 35 10 67 16 70 12 10 -9 7 -52 -4 -52 -5 0 -10 -5 -10 -11 0 -6 7
-8 16 -5 14 5 15 4 4 -9 -11 -13 -10 -14 4 -9 12 4 16 19 16 55 0 32 4 49 13
50 49 3 77 15 77 35 0 29 25 8 28 -24 4 -36 19 -43 24 -10 2 17 14 25 52 34
28 7 53 11 58 8 4 -3 7 -22 6 -44 -1 -34 -5 -39 -32 -45 -17 -4 -35 -8 -41 -9
-5 -1 -11 -12 -12 -26 -1 -14 0 -20 3 -13 3 7 12 9 21 6 11 -4 14 -2 9 5 -4 7
-2 12 3 12 6 0 11 -7 11 -15 0 -8 -5 -15 -12 -15 -6 0 -8 -3 -5 -6 11 -12 36
17 30 34 -3 9 4 2 16 -15 11 -18 19 -38 17 -45 -1 -7 -1 -9 2 -5 2 4 11 2 20
-5 14 -10 15 -10 5 2 -16 18 -17 31 -1 28 6 -2 14 6 16 17 2 11 9 25 14 30 7
7 9 1 4 -20 -5 -25 -4 -27 5 -12 6 10 9 27 6 37 -3 10 1 21 8 24 8 3 16 -3 18
-12 3 -12 5 -11 6 5 1 17 5 21 18 16 12 -5 15 -2 10 10 -10 27 10 20 32 -12
15 -21 27 -28 41 -24 21 6 28 -15 11 -32 -6 -6 -3 -15 6 -24 13 -12 14 -11 9
6 -10 30 22 39 34 10 8 -18 9 -13 7 23 -2 37 1 45 15 44 12 -1 15 5 12 24 -4
21 -3 23 9 14 11 -10 17 -9 27 3 7 9 10 18 6 22 -3 3 -6 1 -6 -5 0 -7 -4 -12
-10 -12 -5 0 -10 8 -10 18 0 14 -2 14 -9 3 -12 -19 -41 -6 -41 18 0 11 -4 23
-10 26 -6 4 -10 -7 -10 -24 0 -17 -4 -31 -10 -31 -5 0 -10 18 -10 40 0 42 15
55 71 63 10 2 22 6 25 10 12 12 22 8 27 -10z m-6903 -73 c11 -7 11 -10 2 -10
-10 0 -10 -3 0 -14 19 -20 43 -9 26 12 -11 13 -10 14 12 7 35 -10 49 -25 23
-25 -11 0 -26 -7 -33 -15 -12 -14 -8 -15 31 -10 32 4 38 3 24 -4 -17 -8 -18
-10 -2 -10 13 -1 17 -10 17 -41 0 -29 4 -40 15 -40 9 0 15 -9 15 -25 0 -14 5
-25 10 -25 16 0 11 -27 -6 -34 -9 -4 -26 -4 -38 -1 -17 5 -18 4 -6 -4 12 -9
10 -11 -12 -11 -16 0 -28 -5 -28 -11 0 -7 11 -8 33 -3 37 8 44 8 75 -1 21 -7
22 -5 23 46 1 53 1 53 10 19 6 -19 10 -51 10 -70 -1 -34 2 -36 47 -50 26 -8
72 -15 104 -15 31 0 51 -3 45 -7 -9 -6 -9 -8 1 -8 6 0 15 0 20 -1 10 0 23 -39
16 -50 -8 -13 -26 0 -21 15 5 12 -40 24 -333 91 -63 14 -139 31 -167 36 -54
11 -75 31 -25 25 15 -2 20 -1 10 1 -18 5 -33 33 -17 33 6 0 7 5 4 11 -4 6 -14
8 -24 5 -10 -4 -8 1 7 13 12 11 22 31 22 45 0 14 6 26 13 26 8 0 9 2 1 8 -16
10 1 52 21 52 8 0 15 -7 15 -16 0 -19 22 -14 28 7 3 11 2 11 -7 -1 -7 -9 -11
-10 -11 -3 0 6 5 15 10 18 6 3 10 11 10 16 0 6 -6 7 -12 3 -9 -5 -9 -2 1 9 15
20 20 20 41 7z m-197 -47 c7 -16 12 -35 10 -45 -2 -9 1 -19 6 -23 8 -4 8 -12
1 -26 -6 -10 -8 -19 -4 -19 3 0 1 -7 -6 -15 -9 -10 -9 -15 -1 -15 6 0 11 -9
11 -19 0 -11 8 -22 18 -25 9 -2 -1 -2 -23 1 -49 7 -117 31 -91 32 12 1 16 6
12 16 -3 8 0 15 7 15 8 0 8 3 -2 9 -21 13 -5 107 22 126 27 19 24 20 40 -12z
m6534 -376 c8 3 19 0 24 -8 7 -11 9 -11 9 4 0 11 8 17 25 17 14 0 28 0 32 0 4
0 9 -13 11 -29 2 -25 -2 -33 -27 -45 -49 -26 -71 -21 -71 14 0 17 -5 30 -11
30 -8 0 -10 -12 -6 -35 3 -19 2 -35 -4 -35 -5 0 -9 5 -9 12 0 6 -6 3 -14 -8
-12 -15 -17 -17 -28 -6 -10 10 -10 17 0 32 10 16 9 18 -3 14 -8 -4 -15 -17
-15 -29 0 -24 -30 -42 -50 -30 -6 3 -14 -4 -19 -17 -7 -15 -10 -18 -10 -7 -1
10 -9 16 -18 15 -13 -1 -19 8 -21 32 -3 27 1 34 23 42 14 5 29 9 33 9 4 -1 10
0 15 1 9 3 15 4 59 13 20 4 39 15 44 25 7 16 7 16 11 0 3 -10 10 -15 20 -11z
m-827 -225 c81 -39 31 -108 -119 -162 -65 -24 -94 -29 -158 -28 -43 1 -85 -1
-94 -6 -38 -17 -51 134 -14 164 10 8 18 8 34 -1 17 -11 23 -10 39 4 10 9 25
17 33 17 8 1 25 7 39 15 37 21 195 19 240 -3z m-2500 -498 c6 -14 10 -42 10
-62 0 -64 17 -70 24 -9 8 63 28 98 46 81 23 -22 32 -102 34 -284 l2 -185 105
-7 c120 -9 225 -25 172 -27 -40 -1 -47 -31 -8 -31 14 0 25 -4 25 -10 0 -5 -9
-10 -20 -10 -25 0 -27 -35 -2 -50 12 -7 -58 -10 -248 -8 -146 2 -270 7 -277
11 -8 5 -9 15 -4 30 5 12 5 32 0 45 -13 34 5 62 41 62 51 0 60 20 61 138 1 59
1 146 -1 194 -3 129 16 187 40 122z m-285 -42 c4 -20 9 -58 10 -85 1 -29 8
-52 18 -60 12 -9 16 -39 19 -129 4 -112 2 -123 -23 -120 -4 1 -13 -17 -22 -38
-17 -45 -26 -49 -52 -20 -14 15 -19 37 -19 75 -1 30 -4 55 -8 55 -5 0 -8 -10
-8 -22 0 -13 -4 -29 -9 -37 -15 -23 -25 7 -29 96 -6 110 2 151 31 155 20 3 22
9 24 77 4 112 50 147 68 53z m6655 -20 c0 -9 10 -22 22 -27 28 -13 41 -61 25
-94 -15 -31 -56 -40 -73 -17 -11 15 -12 15 -18 1 -4 -11 -15 -15 -33 -13 -22
2 -29 9 -34 33 -9 49 8 85 41 85 16 0 31 -6 33 -12 3 -7 6 4 6 25 1 26 5 37
16 37 8 0 15 -8 15 -18z m370 3 c0 -8 9 -15 20 -15 11 0 20 -7 20 -15 0 -8 -9
-15 -20 -15 -30 0 -29 -69 0 -77 24 -6 21 -26 -4 -31 -29 -6 -46 18 -46 64 0
42 -11 56 -25 34 -4 -6 -15 -8 -26 -5 -16 5 -19 1 -19 -30 0 -32 3 -36 20 -30
16 5 20 2 20 -15 0 -32 -51 -24 -67 11 -10 21 -18 25 -43 21 -32 -5 -32 -22 1
-22 11 0 19 -7 19 -16 0 -11 -8 -14 -32 -12 -27 2 -34 9 -42 35 -20 73 49 133
75 66 l11 -28 10 28 c9 26 25 32 71 27 11 -1 21 7 24 19 6 24 33 29 33 6z
m-4500 -15 c15 -8 17 -18 13 -52 -6 -52 -20 -64 -87 -77 -61 -12 -242 -18
-252 -8 -4 4 -16 7 -27 7 -11 0 -29 7 -39 17 -17 15 -19 15 -37 -1 -17 -15
-19 -15 -25 -1 -8 22 -8 79 1 100 5 15 8 15 24 -6 15 -20 19 -21 34 -9 10 8
47 20 84 26 84 15 286 17 311 4z m3549 -70 l1 -80 -30 0 c-16 0 -33 7 -38 16
-8 14 -10 14 -15 1 -4 -11 -23 -15 -71 -16 l-66 -1 0 56 0 56 43 -3 c23 -1 51
1 61 6 13 6 22 3 30 -7 10 -14 14 -14 34 2 12 10 22 25 22 34 0 9 6 16 14 16
11 0 14 -18 15 -80z m-738 -67 c-4 -29 -41 -31 -48 -3 -5 20 -43 29 -43 10 0
-5 7 -10 15 -10 8 0 15 -4 15 -9 0 -14 -84 -11 -92 3 -4 6 -8 23 -8 39 0 20
-5 27 -20 27 -16 0 -20 -7 -20 -30 0 -20 5 -30 15 -30 8 0 15 -4 15 -10 0 -19
-42 -10 -47 10 -3 11 -14 20 -24 20 -23 0 -25 -16 -2 -24 12 -5 13 -10 5 -18
-28 -28 -58 52 -33 91 12 18 41 7 42 -16 0 -14 3 -12 10 6 7 17 15 22 29 18
13 -3 24 1 30 14 10 18 11 18 29 1 15 -14 16 -19 5 -28 -18 -15 -18 -48 1 -64
13 -11 15 -7 15 23 0 20 7 43 17 52 15 16 18 16 28 1 11 -14 13 -14 27 2 8 9
19 26 24 37 6 15 9 7 14 -35 3 -30 3 -65 1 -77z m314 87 c5 -8 12 -7 22 1 11
10 19 10 33 1 12 -7 21 -8 25 -2 10 16 52 11 59 -6 9 -23 -3 -37 -20 -23 -12
9 -14 5 -14 -29 0 -40 -13 -62 -25 -42 -4 6 -13 5 -26 -3 -17 -10 -23 -9 -39
13 -11 14 -23 36 -27 50 -7 22 -8 19 -13 -20 -5 -49 -23 -57 -28 -13 -4 26
-17 42 -34 43 -5 0 -8 -18 -8 -40 l0 -40 -75 0 -75 0 0 55 c0 54 0 55 30 55
29 0 30 -2 30 -45 0 -27 5 -45 11 -45 8 0 10 15 7 45 -5 39 -3 45 13 45 16 0
19 -8 19 -45 0 -26 5 -45 11 -45 7 0 9 9 5 23 -3 12 -3 33 0 45 5 18 13 22 45
20 22 -1 42 2 46 5 9 10 21 8 28 -3z m1965 -175 c0 -7 -7 -18 -15 -25 -15 -12
-14 -15 24 -56 7 -8 14 -25 14 -38 0 -18 4 -22 22 -18 24 4 38 -17 28 -44 -4
-10 -14 -14 -29 -11 -13 2 -24 0 -24 -6 0 -6 -10 -25 -22 -43 -63 -92 -172
-58 -207 63 -13 44 34 143 67 143 5 0 12 9 15 20 6 24 34 26 59 3 17 -15 18
-15 18 3 0 29 20 46 37 33 7 -7 13 -17 13 -24z m-5423 4 c27 -6 59 -16 72 -21
17 -6 26 -5 32 3 12 19 36 3 42 -29 7 -34 -9 -102 -24 -102 -5 0 -15 11 -21
25 -10 22 -13 24 -27 11 -13 -12 -49 -14 -199 -11 -195 4 -214 7 -241 34 -17
17 -17 20 -2 52 14 30 21 35 66 40 89 10 253 9 302 -2z m5086 -44 c34 -32 56
-66 62 -93 12 -65 -56 -152 -119 -152 -54 0 -120 88 -102 135 4 11 2 14 -6 9
-8 -5 -9 -2 -5 10 4 10 7 22 7 27 0 6 5 7 12 3 7 -5 9 -2 5 8 -9 25 57 77 98
78 11 0 33 -11 48 -25z m-267 -45 c37 -55 30 -111 -19 -157 -32 -30 -38 -32
-66 -22 -17 6 -31 15 -31 21 0 5 -4 7 -9 4 -16 -10 -37 89 -27 128 12 50 74
93 109 74 9 -5 29 -27 43 -48z m-1172 -51 c1 -83 1 -84 26 -84 22 0 26 -5 30
-45 4 -37 8 -45 26 -44 29 0 25 -38 -5 -43 -18 -2 -21 0 -16 17 4 11 2 20 -4
20 -6 0 -11 -10 -11 -21 0 -16 -5 -20 -20 -16 -25 7 -29 -8 -26 -116 1 -83 -5
-120 -17 -101 -2 5 -5 60 -5 122 1 62 -2 115 -6 119 -3 3 -6 -3 -6 -15 0 -16
-6 -22 -22 -22 -27 0 -63 19 -38 20 10 0 11 3 4 8 -6 4 -14 24 -17 45 -5 35
-4 37 21 38 15 0 21 3 15 6 -21 8 -15 19 13 21 14 1 29 4 33 6 4 3 7 44 6 91
-1 50 3 84 9 82 5 -2 10 -41 10 -88z m-4105 -156 c27 -55 55 -77 78 -64 24 12
88 -1 113 -24 18 -17 21 -17 47 1 34 22 91 54 98 54 11 0 4 -53 -10 -81 -14
-26 -14 -31 -1 -44 8 -8 19 -15 25 -15 6 0 11 -4 11 -10 0 -5 7 -10 15 -10 9
0 21 -12 28 -27 14 -32 27 -44 41 -36 5 3 6 2 3 -4 -9 -14 74 -53 115 -53 75
0 128 -12 126 -28 -2 -11 9 -19 35 -25 20 -5 37 -13 37 -17 0 -4 -28 -11 -62
-15 -124 -13 -144 -17 -195 -40 -76 -34 -85 -68 -33 -123 l22 -23 -39 6 c-21
4 -46 9 -56 12 -31 8 -33 -27 -4 -79 25 -45 26 -48 8 -48 -11 0 -22 4 -25 9
-6 10 -56 21 -56 13 0 -3 5 -20 12 -39 11 -31 4 -58 -10 -37 -4 5 -26 24 -49
42 -42 33 -46 34 -125 16 -16 -3 -28 -10 -28 -16 0 -6 -3 -9 -6 -6 -11 12 -41
-30 -49 -68 -6 -33 -9 -36 -15 -19 -5 11 -9 30 -9 43 -1 12 -6 22 -11 22 -6 0
-16 11 -22 25 -10 22 -17 25 -67 24 -41 -1 -66 -7 -93 -25 -21 -13 -42 -24
-48 -24 -13 0 -13 37 0 45 20 12 9 41 -35 90 -25 28 -45 55 -45 60 0 6 -19 18
-41 27 -36 15 -40 20 -29 33 10 13 9 15 -8 15 -12 0 -26 9 -32 19 -10 19 -65
32 -205 50 l-50 6 98 17 c105 17 122 24 94 39 -30 17 -18 29 30 29 69 0 143
30 143 57 0 16 85 93 102 93 27 0 29 15 11 64 -9 25 -13 49 -9 53 5 4 11 3 13
-4 2 -7 21 -22 40 -34 l36 -22 22 25 c12 14 25 44 29 67 3 22 8 41 11 41 2 0
13 -17 24 -37z m2470 -125 c3 -52 8 -59 27 -34 14 20 14 20 14 0 0 -16 2 -17
10 -4 6 10 10 11 10 3 0 -7 4 -13 10 -13 5 0 7 6 4 14 -3 8 -1 17 5 21 7 4 11
-4 11 -19 0 -18 4 -24 15 -20 10 4 15 0 15 -12 1 -17 2 -17 10 -3 14 24 57 13
63 -17 2 -13 2 -26 -1 -28 -2 -3 -6 -23 -8 -45 -3 -33 -1 -39 11 -35 10 4 15
0 15 -11 0 -11 -5 -15 -15 -11 -8 3 -15 0 -15 -7 0 -7 13 -12 30 -12 26 -1 30
3 30 27 0 18 -5 28 -15 28 -15 0 -20 12 -9 23 14 14 44 -19 44 -49 0 -21 5
-31 15 -31 15 0 19 14 16 50 -2 11 5 17 18 17 19 0 21 6 21 51 l0 52 35 -6
c28 -5 35 -3 35 11 0 13 4 11 16 -6 13 -18 19 -21 30 -11 8 6 14 18 14 25 0 8
5 14 10 14 6 0 10 -8 10 -19 0 -10 9 -21 20 -24 14 -3 20 -14 20 -31 0 -14 4
-26 9 -26 6 0 9 10 9 23 -3 41 2 77 10 77 4 0 14 -5 22 -11 11 -8 12 -12 2
-16 -16 -6 -6 -23 14 -23 11 0 13 6 9 20 -5 14 -2 20 10 20 9 0 16 -7 14 -17
-1 -10 0 -36 1 -58 l2 -40 8 33 c10 42 17 49 38 36 13 -8 21 -7 35 6 25 24 67
23 67 -1 0 -11 -7 -19 -15 -19 -8 0 -15 -7 -15 -16 0 -10 -6 -14 -15 -10 -12
4 -15 -3 -15 -29 0 -32 -2 -34 -37 -37 -62 -5 -114 18 -83 37 16 10 12 45 -5
45 -8 0 -16 -6 -17 -12 0 -7 -2 -17 -3 -23 -2 -5 -3 -16 -4 -22 -2 -20 -21
-15 -22 5 -1 16 -2 16 -6 -1 -5 -17 -33 -18 -95 0 -12 3 -18 -1 -18 -11 0 -9
-4 -16 -9 -16 -5 0 -16 -3 -24 -6 -11 -4 -16 2 -19 17 -3 21 -4 22 -20 6 -9
-9 -21 -17 -27 -17 -6 0 -11 -8 -11 -18 0 -15 11 -17 106 -16 88 0 108 3 116
17 11 21 28 22 28 2 0 -11 13 -14 53 -14 28 1 55 0 60 -1 16 -5 43 -3 60 5 16
7 60 4 94 -7 6 -1 12 2 13 7 0 6 -9 12 -20 15 -31 7 -54 75 -33 95 18 18 50
19 56 3 3 -7 6 2 6 20 1 31 21 48 21 17 0 -9 6 -12 15 -9 8 4 15 2 16 -2 4
-57 9 -78 20 -85 9 -5 17 -3 22 6 12 23 29 18 25 -7 -2 -13 -9 -22 -16 -21 -6
2 -12 -2 -12 -8 0 -5 -8 -9 -17 -7 -10 1 -19 -2 -20 -7 -2 -5 5 -9 15 -8 29 2
62 15 62 24 0 5 7 9 15 9 8 0 15 5 15 11 0 6 9 9 20 6 17 -4 20 -2 15 13 -7
22 12 37 28 21 15 -15 47 -14 48 2 1 6 2 20 3 29 3 39 21 20 21 -22 0 -25 -4
-45 -10 -45 -5 0 -16 -4 -22 -8 -7 -5 -17 -6 -22 -3 -5 3 -12 -1 -15 -10 -3
-9 -12 -14 -20 -11 -8 3 -16 -2 -19 -15 -3 -11 -10 -17 -16 -14 -5 4 -12 2
-16 -3 -3 -5 -13 -10 -23 -10 -34 0 -109 -8 -118 -12 -5 -3 -50 -5 -100 -4
-89 1 -90 1 -86 -22 5 -25 22 -32 22 -8 0 8 7 15 15 15 9 0 15 -9 15 -25 0
-14 4 -25 9 -25 5 0 12 11 15 25 4 14 13 25 21 25 23 0 28 -20 9 -35 -18 -14
-18 -14 4 -15 15 0 22 6 22 20 0 39 18 19 26 -27 4 -29 9 -40 12 -28 6 29 18
39 39 30 10 -4 30 -7 44 -6 34 3 50 -38 18 -46 -13 -4 -19 -14 -19 -34 0 -23
-5 -29 -22 -30 -13 -1 -27 0 -33 1 -5 2 -21 4 -35 5 -14 1 -31 3 -37 3 -15 2
-18 32 -3 32 11 0 14 43 4 53 -10 9 -36 -21 -29 -33 9 -14 -4 -52 -16 -45 -5
4 -9 22 -9 41 0 19 -3 34 -7 34 -5 0 -7 -58 -5 -130 2 -86 0 -130 -7 -130 -7
0 -11 35 -11 96 0 67 -3 93 -11 88 -7 -4 -9 -23 -6 -48 3 -22 1 -61 -3 -86 -6
-37 -8 -27 -9 54 0 55 -4 97 -7 93 -3 -3 -9 -39 -14 -79 l-7 -73 -2 73 c-2
104 -21 91 -22 -15 -1 -49 -4 -78 -6 -65 -6 31 -23 28 -24 -5 -2 -25 -2 -24
-9 7 -7 33 -7 32 -9 -17 0 -28 -5 -55 -11 -58 -5 -3 -10 2 -10 12 -1 12 -5 8
-15 -12 -11 -25 -14 -27 -16 -10 -1 11 -1 28 0 39 1 16 -1 17 -15 5 -15 -12
-16 0 -13 143 3 108 8 161 17 170 6 6 12 20 12 30 0 14 -8 18 -36 18 -31 0
-35 -3 -29 -17 16 -39 12 -88 -9 -106 -19 -17 -21 -31 -21 -118 0 -60 -4 -98
-10 -96 -6 1 -10 66 -10 170 l1 167 -26 0 c-25 0 -25 -2 -24 -67 1 -38 5 -76
9 -85 3 -9 5 -25 2 -35 -3 -12 -5 -9 -6 9 -1 29 -21 50 -21 23 0 -9 -5 -13
-11 -10 -6 5 -8 26 -3 61 6 53 -1 112 -13 100 -4 -3 -5 -33 -4 -65 1 -34 -2
-62 -8 -66 -6 -3 -11 -26 -11 -51 0 -28 -4 -43 -10 -39 -5 3 -10 33 -10 67 0
52 -2 59 -15 48 -8 -7 -20 -8 -27 -4 -7 5 -21 7 -30 6 -21 -4 -33 35 -24 78 3
17 1 30 -4 30 -6 0 -11 -8 -11 -17 -1 -17 -2 -17 -6 0 -7 26 -23 20 -23 -9 0
-14 -4 -23 -9 -19 -5 3 -11 -7 -13 -22 -2 -19 -9 -27 -26 -28 -13 -1 -25 1
-27 5 -3 4 -16 5 -30 2 -25 -4 -25 -3 -19 37 4 28 3 41 -5 41 -6 0 -12 -6 -12
-12 -1 -7 -2 -17 -4 -23 -1 -5 -3 -15 -3 -21 -2 -11 -22 -11 -129 0 -54 6 -63
5 -63 -9 0 -36 -25 -6 -28 33 -3 45 -28 60 -34 20 -2 -13 -12 -22 -25 -24 -21
-4 -23 0 -23 38 0 23 -3 38 -7 34 -4 -4 -6 -23 -4 -42 2 -28 0 -33 -14 -28 -9
4 -15 15 -13 28 2 13 -2 20 -9 18 -7 -1 -13 2 -13 8 0 5 5 10 10 10 6 0 10 5
10 11 0 12 30 44 30 32 0 -4 5 -1 10 7 8 13 11 12 16 -6 8 -31 61 -38 68 -10
7 25 -2 35 -14 16 -8 -13 -10 -13 -10 1 0 9 7 19 15 23 8 3 15 0 15 -5 0 -6 9
-9 20 -6 17 4 20 0 20 -23 0 -21 4 -28 18 -25 9 1 23 -2 31 -8 10 -9 18 -6 32
11 10 13 19 22 21 21 2 -1 13 1 24 5 23 7 36 38 27 62 -4 11 -7 11 -19 -1 -8
-7 -14 -20 -15 -27 -1 -7 -5 3 -10 22 -4 19 -6 42 -2 50 3 8 5 33 5 55 -1 34
0 36 8 15 4 -14 9 -20 10 -15 1 6 5 1 10 -10 8 -18 9 -18 10 5 2 14 2 31 1 39
-2 13 6 41 12 41 2 0 4 -19 6 -42z m-706 -1 c16 -2 34 1 42 9 17 17 25 0 18
-38 -6 -29 14 -48 28 -27 7 11 9 10 9 -3 0 -13 -8 -18 -25 -18 -21 0 -25 5
-26 33 l-2 32 -6 -31 c-6 -28 -9 -30 -46 -30 -38 1 -40 4 -46 36 l-6 35 -2
-33 c-1 -33 -1 -33 -43 -29 -41 4 -43 5 -43 38 0 34 0 34 48 34 35 0 47 3 47
14 0 12 2 12 13 -1 6 -9 25 -18 40 -21z m-2764 -55 c6 -29 11 -98 11 -153 l0
-99 58 6 c31 4 60 12 64 18 5 7 8 5 8 -5 0 -9 -9 -19 -21 -22 -12 -3 -18 -10
-15 -16 4 -5 -3 -15 -15 -22 -19 -9 -25 -9 -35 5 -11 16 -13 16 -17 -1 -4 -14
-5 -14 -6 5 -2 42 -20 22 -26 -31 -9 -72 -19 -87 -42 -65 -32 33 -29 387 4
441 9 15 21 -7 32 -61z m-85 26 c7 -43 14 -409 9 -425 -3 -7 -12 -13 -21 -13
-15 0 -17 21 -16 218 1 119 2 225 3 235 2 29 20 19 25 -15z m2666 -155 c3 15
9 27 14 26 5 0 12 5 17 13 6 10 11 9 23 -7 15 -20 15 -20 16 2 0 17 5 22 21
20 11 -2 25 -10 30 -18 6 -10 9 -10 9 -1 0 6 5 12 11 12 5 0 9 -8 8 -17 -3
-30 1 -39 10 -24 15 23 34 2 27 -30 -3 -17 -1 -29 5 -29 6 0 9 19 8 48 -4 52
12 63 22 16 4 -16 7 -24 8 -17 1 7 15 10 36 9 26 -3 35 1 35 12 0 14 1 14 13
0 19 -24 58 -30 64 -9 7 27 47 20 51 -9 3 -17 0 -21 -12 -17 -13 5 -16 -1 -16
-33 l0 -39 -47 3 c-45 2 -48 5 -51 32 -2 16 -8 34 -14 39 -7 7 -8 -1 -4 -27
l7 -37 -38 5 c-21 2 -57 5 -80 7 -41 2 -63 19 -43 32 15 10 -25 75 -46 75 -4
0 -4 -30 0 -66 5 -44 3 -64 -4 -59 -5 3 -10 13 -10 21 0 8 -7 14 -15 14 -8 0
-15 8 -16 18 0 10 -3 12 -6 5 -2 -7 -18 -13 -34 -13 -26 0 -28 2 -22 30 5 25
3 29 -11 24 -9 -3 -16 -17 -16 -31 0 -13 -4 -22 -9 -18 -6 3 -15 -3 -20 -12
-9 -14 -11 -6 -9 37 l3 55 33 -3 c25 -3 32 0 34 15 0 10 4 -4 8 -32 5 -39 7
-44 10 -22z m2715 -138 c10 -73 17 -99 31 -110 24 -17 34 -11 34 21 0 15 6 24
15 24 8 0 15 -1 16 -2 0 -2 3 -34 6 -73 6 -81 13 -99 13 -32 0 55 15 69 32 30
11 -25 12 -26 15 -7 6 32 78 31 99 -1 19 -29 9 -125 -12 -125 -8 0 -14 -6 -15
-12 0 -7 -5 -4 -10 7 -5 11 -16 31 -24 45 -14 24 -15 23 -16 -30 -1 -43 -3
-48 -8 -25 -3 17 -14 31 -24 33 -14 3 -17 -4 -17 -35 0 -28 -3 -34 -10 -23 -5
8 -10 25 -10 38 0 26 -30 31 -31 5 0 -14 -2 -13 -9 5 -5 12 -16 22 -25 22 -12
0 -15 -14 -17 -67 l-2 -68 -3 68 c-5 91 -23 85 -23 -7 0 -74 -14 -135 -28
-122 -9 10 -9 11 -11 117 -1 80 -3 90 -17 85 -10 -4 -22 1 -30 11 -11 16 -13
5 -14 -74 0 -93 -5 -123 -21 -123 -5 0 -9 45 -9 100 0 60 -4 100 -10 100 -6 0
-10 -41 -11 -102 0 -115 -11 -165 -22 -109 -9 42 -9 229 -1 299 5 41 11 52 25
52 14 0 19 11 24 48 10 69 13 73 15 17 2 -64 13 -104 24 -87 4 6 16 12 27 12
17 0 19 7 19 69 0 72 9 135 18 126 3 -2 11 -48 17 -100z m-316 -26 c5 -41 9
-60 10 -44 2 50 12 79 22 63 5 -7 9 -25 9 -40 0 -21 5 -28 20 -28 19 0 20 -7
20 -197 0 -272 -27 -304 -32 -38 l-1 110 -7 -115 c-9 -139 -8 -135 -17 -126
-4 4 -10 62 -14 129 l-6 122 -1 -117 c-1 -68 -6 -118 -12 -118 -5 0 -7 -6 -4
-14 3 -8 1 -17 -5 -21 -6 -3 -11 -5 -11 -3 0 2 -3 57 -6 123 -4 66 -8 122 -10
124 -2 2 -4 -35 -4 -82 0 -51 -4 -87 -10 -87 -6 0 -11 38 -11 93 l-2 92 -8
-115 c-5 -63 -12 -126 -15 -140 l-7 -25 -8 30 c-5 17 -9 103 -8 192 0 89 -2
166 -5 171 -6 11 16 62 27 62 4 0 12 -10 17 -22 l9 -23 7 23 c3 12 13 22 20
22 13 0 19 30 17 79 -1 8 2 10 8 4 5 -5 13 -43 18 -84z m-409 21 c0 -10 9 -24
20 -30 29 -16 29 -106 0 -115 -11 -3 -24 -3 -30 0 -7 4 -10 -50 -11 -157 0
-164 -9 -228 -22 -177 -4 13 -7 93 -7 178 0 130 -2 156 -16 166 -24 17 -24 93
0 110 10 8 24 11 32 8 9 -3 14 2 14 16 0 12 5 21 10 21 6 0 10 -9 10 -20z
m146 -26 c1 -10 2 -36 3 -56 1 -43 18 -52 19 -10 0 15 4 42 8 61 l7 34 18 -37
c10 -21 16 -43 13 -51 -3 -7 -1 -16 5 -20 16 -9 13 -41 -4 -55 -12 -10 -15
-37 -15 -121 0 -59 -4 -110 -9 -113 -11 -7 -21 68 -21 162 0 41 -3 72 -7 69
-3 -4 -5 -65 -4 -137 2 -87 -1 -130 -8 -130 -7 0 -11 44 -11 129 0 120 -1 129
-20 134 -22 6 -27 36 -8 55 9 9 8 18 -3 38 -11 21 -11 28 -1 31 6 3 10 9 6 14
-7 13 6 31 19 26 7 -2 12 -12 13 -23z m1044 -99 c0 -15 6 -25 15 -25 34 0 49
-104 19 -134 -8 -9 -11 -16 -5 -16 6 0 11 -7 11 -15 0 -8 7 -15 16 -15 8 0 12
-5 9 -10 -4 -6 -11 -7 -17 -4 -7 5 -9 1 -5 -9 8 -22 -8 -30 -23 -11 -11 12
-15 12 -21 2 -6 -8 -9 1 -9 25 0 47 -21 72 -48 58 -14 -7 -25 -6 -40 5 l-22
15 0 -110 c0 -70 -4 -111 -10 -111 -7 0 -10 54 -9 155 0 120 4 155 14 155 7 0
15 7 19 15 6 17 56 21 56 4 0 -5 5 -7 11 -4 6 4 8 14 5 22 -8 19 1 33 20 33 8
0 14 -10 14 -25z m1369 -280 c0 -137 -3 -255 -7 -261 -9 -14 -42 -9 -53 8 -11
16 -12 509 -1 524 13 22 47 21 54 -1 3 -11 6 -132 7 -270z m-109 273 c0 -10 2
-10 9 0 15 25 22 -64 20 -277 -1 -247 -6 -286 -34 -286 -11 -1 -23 4 -27 10
-4 5 -8 65 -8 132 0 103 -2 121 -14 117 -8 -3 -16 -22 -18 -42 -4 -47 -28 -56
-28 -10 0 63 -43 91 -56 36 -4 -23 -8 -27 -15 -17 -5 8 -9 24 -9 37 0 14 -4
20 -10 17 -6 -4 -17 -1 -25 5 -13 11 -15 4 -15 -43 0 -31 -4 -59 -10 -62 -6
-4 -10 32 -10 100 0 68 4 104 10 100 6 -3 10 -21 10 -38 0 -27 4 -32 25 -32
17 0 25 6 25 17 0 25 21 33 27 10 6 -25 34 -37 45 -20 4 7 8 37 8 66 0 51 12
68 24 36 3 -9 6 -40 6 -71 0 -39 4 -54 13 -51 8 3 13 41 15 131 2 106 5 127
18 127 8 0 12 5 9 10 -3 6 -1 10 4 10 6 0 11 -6 11 -12z m-370 -198 c0 -183
-1 -190 -20 -190 -19 0 -20 7 -20 190 0 183 1 190 20 190 19 0 20 -7 20 -190z
m75 -50 c-1 -91 -6 -177 -10 -189 -6 -21 -7 -21 -21 -4 -10 14 -13 61 -14 200
0 183 5 227 21 201 7 -10 9 -8 10 7 1 11 5 5 9 -14 4 -19 7 -109 5 -201z
m-2392 181 c-3 -11 0 -28 6 -38 9 -15 10 -12 11 20 0 20 5 37 10 37 6 0 10
-60 10 -160 0 -191 -18 -221 -23 -37 l-3 122 -2 -142 c-1 -81 -6 -144 -12
-148 -5 -3 -11 0 -11 7 -4 36 -5 335 -1 346 7 20 21 14 15 -7z m-1363 -34 c0
-8 13 -12 35 -12 19 1 35 -3 35 -9 0 -5 6 -1 14 10 13 17 15 17 21 2 10 -25 1
-63 -13 -60 -7 1 -15 -4 -18 -12 -4 -11 -11 -12 -22 -6 -33 18 -82 29 -107 24
-17 -3 -28 2 -37 15 -9 15 -15 17 -25 9 -10 -8 -13 -5 -13 16 0 27 15 35 23
14 3 -8 6 -5 6 5 1 15 8 18 35 16 19 -2 38 0 42 4 9 9 24 -1 24 -16z m1540
-187 c0 -176 -9 -226 -29 -158 -8 30 -9 26 -10 -32 -1 -46 -4 -61 -11 -50 -12
19 -13 367 -1 375 5 3 12 -9 14 -27 3 -24 4 -19 5 18 1 28 5 54 8 57 19 19 24
-21 24 -183z m-669 52 c0 -16 3 -21 6 -12 13 35 25 41 46 23 11 -10 17 -13 14
-7 -4 7 0 14 8 18 8 3 19 -3 25 -14 14 -25 13 -157 -1 -166 -7 -4 -8 -20 -4
-43 13 -77 15 -117 6 -130 -25 -38 -50 44 -32 112 5 24 8 60 4 79 -5 33 -7 36
-26 25 -15 -9 -21 -9 -24 1 -6 17 -23 15 -23 -3 0 -22 -14 -18 -49 12 -19 17
-31 37 -31 53 -1 25 -1 25 -13 -4 l-13 -30 -13 31 c-15 36 -12 75 7 81 7 2 16
-5 19 -17 4 -16 9 -19 18 -11 9 8 14 6 19 -5 9 -23 26 -18 26 8 0 46 29 45 31
-1z m-979 -21 c9 -15 16 -17 25 -9 10 8 22 4 47 -16 31 -23 36 -24 44 -10 11
19 32 10 32 -13 0 -11 6 -14 25 -9 21 5 25 3 26 -16 0 -21 1 -21 8 -4 7 19 8
19 14 -3 7 -28 0 -50 -17 -47 -6 1 -26 12 -43 24 -36 25 -58 27 -94 8 -22 -11
-29 -11 -45 1 -10 7 -24 11 -31 8 -17 -6 -53 25 -53 45 0 19 28 60 40 60 6 0
15 -9 22 -19z m-427 -61 c3 -5 27 -10 53 -10 26 0 52 -4 58 -8 31 -20 48 -110
22 -114 -7 0 -18 -2 -24 -2 -6 -1 -19 -8 -28 -15 -14 -12 -20 -11 -39 8 -13
11 -33 21 -46 21 -37 0 -60 18 -67 54 -9 52 2 76 36 76 16 0 32 -4 35 -10z
m1129 -102 c5 -10 7 -10 12 0 7 14 40 16 49 2 3 -5 15 -10 26 -10 11 0 22 -7
25 -15 9 -22 31 -18 37 5 8 31 24 24 31 -15 9 -46 2 -57 -29 -45 -15 6 -27 6
-30 0 -4 -6 -22 -10 -42 -10 -26 0 -36 5 -40 19 -4 16 -9 18 -36 10 -39 -11
-73 16 -62 50 7 23 49 30 59 9z m2426 -284 c0 -207 -1 -214 -20 -214 -19 0
-20 7 -20 214 0 211 4 235 33 219 4 -2 7 -101 7 -219z m-3229 163 c37 -1 63
-8 75 -19 11 -9 31 -19 46 -22 14 -2 37 -11 50 -19 12 -8 39 -18 58 -22 45 -9
57 -20 65 -56 8 -35 12 -36 36 -5 14 18 27 23 51 21 18 -2 35 -4 38 -5 3 -1 9
-2 13 -1 5 1 21 -7 36 -18 16 -11 36 -18 48 -15 15 4 24 -2 36 -29 10 -19 17
-44 17 -56 0 -24 -41 -54 -63 -46 -8 4 -18 2 -21 -4 -5 -7 -15 -7 -34 1 -15 6
-43 14 -62 17 -29 5 -39 13 -55 48 -23 49 -30 52 -39 19 -8 -34 -27 -37 -93
-19 -32 9 -70 16 -84 15 -16 -1 -35 9 -49 23 -18 19 -26 22 -37 13 -10 -8 -18
-7 -31 6 -10 9 -28 16 -41 16 -12 0 -24 7 -27 15 -7 17 -40 20 -49 5 -3 -5
-10 -10 -15 -10 -11 0 -41 76 -36 92 3 7 7 26 11 42 6 28 7 28 53 21 26 -4 72
-8 103 -8z m3533 -135 c35 -38 44 -91 20 -130 -17 -29 -54 -45 -81 -35 -25 10
-53 70 -53 113 0 79 61 107 114 52z m293 -29 c68 -78 40 -213 -43 -213 -49 0
-114 83 -114 144 0 32 29 82 55 95 30 16 77 4 102 -26z m-4408 -12 c10 -6 15
-30 15 -73 1 -46 4 -62 14 -60 7 1 27 -8 45 -22 18 -13 45 -28 61 -33 44 -14
68 -90 46 -147 -10 -29 -13 -28 -114 20 -88 42 -95 48 -100 73 -4 21 -2 186 3
239 1 14 11 15 30 3z m4680 -7 c57 -29 92 -109 73 -172 -25 -83 -98 -103 -152
-42 -59 66 -60 166 -2 209 33 25 40 25 81 5z m-3420 -25 c20 -6 43 -15 51 -19
8 -4 31 -5 51 -2 21 2 40 -1 43 -7 4 -6 17 -11 30 -11 29 0 56 -55 56 -116 0
-38 -4 -46 -25 -56 -21 -10 -28 -7 -54 20 -26 29 -34 32 -82 30 -63 -3 -120
20 -136 54 -17 34 -22 81 -12 100 11 21 29 22 78 7z m-535 -195 c39 -19 80
-34 93 -34 16 0 30 -12 48 -40 31 -49 31 -80 1 -102 -22 -16 -27 -16 -53 -3
-15 8 -43 15 -61 15 -19 0 -46 6 -60 14 -15 7 -40 18 -57 22 -23 7 -32 18 -43
54 -12 40 -12 50 2 84 18 44 20 43 130 -10z m-392 -72 c9 -26 13 -51 8 -57 -4
-5 -10 -21 -12 -35 -5 -38 -34 -37 -71 2 -46 49 -57 94 -34 139 l18 36 37 -18
c29 -15 41 -30 54 -67z m718 -62 c4 -7 13 -9 19 -6 6 4 14 1 17 -8 3 -8 12
-12 19 -10 19 8 45 -35 45 -73 0 -31 -2 -33 -32 -32 -52 3 -111 21 -134 41
-11 10 -26 18 -32 18 -13 0 -17 72 -5 84 11 11 95 -1 103 -14z m-7010 -81 c0
-13 -14 -26 -42 -40 -24 -11 -54 -26 -68 -34 -14 -7 -50 -16 -80 -19 -30 -4
-63 -9 -72 -12 -10 -3 -18 -1 -18 4 0 5 20 15 45 22 25 7 45 17 45 22 0 6 -7
8 -15 4 -22 -8 -19 1 9 29 14 14 28 21 31 15 4 -7 14 -6 28 2 26 14 119 36
130 31 4 -2 7 -13 7 -24z m6020 -344 c43 -29 54 -33 70 -23 16 10 24 8 47 -12
40 -36 84 -58 129 -66 30 -4 55 -21 103 -66 46 -42 70 -58 83 -54 11 2 41 -8
69 -25 28 -16 54 -29 58 -29 5 0 16 -11 25 -25 13 -20 22 -24 39 -19 12 4 23
10 25 15 2 5 15 -3 30 -18 14 -14 58 -41 97 -60 38 -18 77 -37 85 -42 8 -5 36
-17 61 -25 40 -14 49 -23 63 -59 9 -24 16 -65 16 -93 0 -78 62 -191 92 -166
16 13 63 5 79 -14 6 -8 17 -14 24 -14 7 0 32 -16 56 -35 24 -19 50 -35 57 -35
21 0 90 -48 108 -75 23 -35 51 -50 69 -35 16 13 42 2 88 -36 16 -13 34 -24 41
-24 7 0 21 -9 31 -20 11 -12 35 -28 54 -38 20 -9 42 -22 48 -28 7 -7 17 -14
23 -16 14 -4 30 -72 23 -98 -6 -22 -18 -26 -28 -9 -5 7 -15 5 -31 -6 -18 -12
-29 -13 -43 -5 -11 5 -26 7 -34 4 -8 -3 -31 6 -52 20 -21 14 -43 26 -49 26
-16 1 -59 40 -80 74 -16 25 -22 28 -57 23 -33 -4 -45 0 -85 31 -44 33 -48 34
-60 18 -7 -10 -18 -15 -24 -11 -7 4 -10 -10 -9 -43 3 -87 -58 -135 -86 -67
-13 30 -19 34 -40 29 -20 -5 -35 2 -69 30 -25 20 -54 36 -65 36 -42 0 -99 31
-111 61 -10 22 -17 28 -34 24 -14 -4 -33 6 -60 30 -40 37 -73 43 -86 15 -38
-82 -55 -110 -67 -110 -8 0 -21 16 -29 35 -14 35 -31 44 -50 25 -7 -7 -21 2
-44 25 -19 19 -43 35 -54 35 -34 1 -62 31 -96 100 -40 81 -53 186 -26 206 12
8 16 23 14 45 -5 52 -25 47 -30 -8 -3 -26 -10 -61 -16 -78 -7 -16 -14 -51 -17
-77 -4 -33 -11 -49 -24 -53 -23 -7 -138 51 -152 77 -5 10 -14 16 -18 14 -13
-8 -50 32 -67 72 -12 30 -14 65 -10 182 3 80 7 163 9 185 3 38 -15 95 -31 95
-5 0 -25 15 -45 34 -35 32 -37 37 -37 94 0 105 15 114 100 57z m-3223 -179
c-16 -14 -28 -26 -27 -28 1 -2 -2 -11 -5 -20 -4 -10 -5 -38 -4 -62 4 -44 4
-44 -53 -80 l-57 -36 -6 33 c-3 17 -4 41 -2 52 2 11 0 33 -4 48 -8 28 -6 29
84 72 109 52 110 52 74 21z"/>
<path d="M950 5288 c0 -4 8 -8 18 -8 18 0 42 -18 42 -31 0 -4 -13 -10 -30 -14
-16 -4 -30 -11 -30 -16 0 -5 -6 -9 -14 -9 -7 0 -19 -7 -26 -15 -9 -10 -9 -15
-1 -15 6 0 11 5 11 10 0 7 6 7 18 1 13 -7 22 -7 30 1 7 7 18 5 36 -8 28 -21
35 -37 12 -28 -10 4 -16 -2 -18 -18 -2 -17 -8 -22 -25 -20 -16 2 -23 -2 -23
-12 0 -9 -6 -16 -12 -16 -9 0 -8 -4 2 -10 12 -8 11 -10 -7 -10 -13 0 -23 -4
-23 -9 0 -5 6 -8 13 -8 6 1 34 -3 60 -7 41 -7 50 -6 61 9 14 19 36 13 36 -9 0
-13 46 -20 213 -31 49 -3 62 -1 42 4 l-30 9 27 1 c15 0 29 5 32 10 3 4 -6 6
-19 3 -21 -4 -25 0 -25 20 0 27 -36 72 -50 63 -12 -7 -24 40 -16 61 4 10 1 14
-6 11 -8 -2 -12 -16 -10 -35 3 -26 0 -32 -16 -32 -13 0 -18 -7 -18 -22 1 -14
-6 -24 -16 -26 -13 -3 -18 3 -18 21 0 23 23 43 43 38 5 -1 6 7 3 17 -4 12 1
25 13 36 11 10 17 24 14 32 -3 8 0 14 6 14 6 0 11 4 11 8 0 10 -68 32 -99 32
-11 0 -21 3 -21 8 0 4 -43 7 -95 8 -52 0 -95 -3 -95 -8z"/>
<path d="M1705 4691 c7 -33 -10 -45 -18 -13 -3 12 -5 13 -6 2 -1 -13 -62 -40
-92 -40 -12 0 -43 -29 -37 -35 10 -10 368 -15 368 -5 0 6 -14 10 -31 10 -20 0
-28 4 -23 12 5 7 0 9 -14 6 -12 -3 -21 -3 -20 1 0 3 0 13 -1 21 -1 13 -2 13
-11 0 -9 -13 -13 -11 -30 10 -12 15 -18 18 -14 8 3 -10 4 -25 0 -33 -8 -21
-36 -7 -36 19 0 17 -2 18 -10 6 -7 -11 -10 -7 -10 17 0 17 -5 35 -11 39 -8 4
-9 -3 -4 -25z"/>
<path d="M0 4601 l0 -38 173 -12 c94 -6 196 -14 226 -17 l54 -6 -5 -105 c-3
-71 -9 -107 -18 -113 -9 -6 -14 -41 -17 -116 -3 -95 -12 -138 -27 -123 -3 3
-8 47 -11 99 -3 51 -7 96 -10 98 -3 3 -5 -35 -5 -84 0 -93 -11 -132 -30 -104
-5 8 -10 37 -10 64 0 27 -3 46 -7 42 -5 -4 -8 -33 -8 -64 0 -50 -2 -57 -20
-57 -19 0 -20 6 -17 82 2 46 -1 91 -7 100 -9 15 -11 14 -12 -12 -1 -16 -1 -52
0 -80 2 -53 -10 -82 -28 -71 -6 4 -11 39 -11 84 0 42 -5 84 -10 92 -6 10 -9
-11 -7 -65 2 -48 -2 -92 -10 -110 -7 -16 -12 -22 -13 -13 0 9 -5 18 -11 20
-10 3 -13 26 -8 68 1 8 1 35 0 60 -5 88 -22 -7 -19 -107 3 -95 -1 -109 -27
-100 -18 8 -21 67 -3 85 7 7 8 12 2 12 -15 0 -11 174 5 194 12 14 11 16 -5 17
-18 0 -18 1 0 8 19 7 19 8 0 15 -19 8 -19 8 0 15 19 7 19 8 -2 13 -17 5 -22 2
-21 -15 0 -21 -9 -274 -10 -290 -1 -5 -9 -7 -18 -5 -15 3 -18 14 -18 63 -1
141 -5 199 -14 190 -12 -12 -15 -106 -6 -161 5 -26 3 -44 -4 -48 -7 -5 -10
-208 -11 -668 l0 -661 37 7 c89 14 112 14 40 -1 -60 -13 -77 -20 -75 -32 3
-12 15 -15 53 -14 79 4 243 44 250 61 9 23 2 24 -69 11 -37 -6 -69 -9 -72 -6
-3 2 15 7 38 11 24 4 59 11 78 16 l35 10 0 109 c0 60 3 112 6 115 13 13 139
19 139 7 0 -6 10 -11 23 -11 18 0 19 -2 7 -10 -11 -7 -7 -10 18 -10 22 0 39 8
54 25 11 13 25 22 29 19 4 -2 29 0 56 6 99 21 98 21 82 31 -10 6 -4 9 21 10
19 0 44 2 55 5 11 2 31 6 45 8 14 3 71 13 128 23 l102 18 0 68 c0 64 1 67 19
57 32 -16 51 -12 88 20 37 33 73 39 94 14 12 -14 14 -14 25 1 7 10 20 15 27
12 22 -8 61 38 52 60 -5 10 -7 22 -6 27 1 5 -7 6 -19 3 -15 -4 -20 0 -20 13 0
33 -19 31 -22 -2 -3 -32 -4 -32 -19 17 l-16 50 -11 -40 c-6 -22 -18 -49 -26
-60 -12 -16 -16 -17 -30 -6 -9 7 -13 17 -10 22 3 5 0 9 -6 9 -8 0 -10 9 -6 27
5 17 3 29 -6 34 -22 14 -28 10 -28 -18 0 -16 -5 -35 -10 -43 -7 -11 -11 -4
-16 26 -6 41 -7 41 -35 31 -16 -6 -29 -15 -29 -19 0 -4 -4 -8 -10 -8 -5 0 -10
7 -10 16 0 11 -5 14 -16 10 -9 -3 -21 -6 -28 -6 -7 0 -18 -15 -23 -32 l-11
-33 -8 35 c-7 34 -8 34 -15 10 -4 -14 -7 -40 -8 -57 -1 -46 -21 -41 -22 5 0
20 -4 46 -8 57 -8 19 -8 19 -19 0 -6 -11 -12 -14 -12 -7 0 22 -30 13 -31 -10
l0 -23 -11 23 c-9 18 -18 22 -37 18 l-26 -5 25 11 25 10 -1 284 c-1 156 2 284
6 284 7 0 5 24 -6 76 -2 13 -11 21 -21 20 -14 -1 -18 6 -16 27 1 15 -3 27 -9
27 -7 0 -7 4 0 13 10 12 15 58 13 132 -1 33 -5 41 -21 42 -16 1 -18 -2 -11
-20 5 -12 6 -55 2 -95 -4 -40 -3 -76 2 -79 5 -3 7 -20 5 -38 -3 -30 -1 -33 21
-32 17 1 26 -4 29 -16 5 -24 -18 -51 -32 -37 -5 5 -12 10 -15 10 -4 0 -5 -140
-4 -310 2 -269 0 -312 -13 -317 -8 -3 -17 -3 -21 0 -3 3 -6 161 -6 351 0 204
-4 343 -10 339 -5 -3 -7 -18 -5 -34 3 -21 0 -29 -10 -29 -10 0 -13 8 -10 23 2
13 -2 29 -10 37 -13 12 -15 11 -9 -11 6 -23 -11 -79 -24 -79 -4 0 -9 8 -12 19
-3 14 -11 17 -31 14 -26 -5 -31 2 -26 37 1 8 -1 12 -5 8 -11 -10 -12 -49 -4
-75 5 -14 3 -25 -6 -33 -23 -19 -35 -1 -31 46 2 24 -1 47 -6 50 -5 3 -7 12 -4
20 3 8 1 14 -5 14 -7 0 -9 -13 -6 -32 2 -18 0 -44 -5 -58 l-10 -25 -9 23 c-5
12 -8 45 -7 73 0 27 -2 52 -5 55 -3 4 -2 16 3 29 5 13 10 51 11 84 1 33 5 64
8 70 5 8 10 -52 15 -176 2 -48 19 -34 22 18 1 24 6 60 12 79 l10 35 2 -40 c6
-100 18 -92 16 10 -2 61 0 119 5 130 7 18 8 18 8 2 1 -15 8 -18 39 -16 20 2
45 8 54 13 11 7 21 6 30 -2 10 -8 18 -8 25 -1 7 7 13 8 17 0 10 -16 36 -1 36
20 0 10 -9 23 -20 29 -28 15 -180 20 -180 6 0 -6 -5 -4 -10 5 -5 8 -8 36 -7
62 1 25 -1 48 -4 51 -7 8 -328 26 -456 26 l-113 0 0 -39z m291 -991 c5 0 9
-39 9 -86 l0 -86 30 6 c19 3 29 2 25 -4 -3 -6 -16 -10 -29 -10 -21 0 -22 -4
-22 -67 0 -213 -9 -286 -29 -253 -4 6 -8 115 -10 243 -2 148 -7 233 -14 235
-7 2 -10 -46 -10 -144 0 -90 -4 -151 -10 -157 -8 -8 -11 9 -11 55 0 37 -5 70
-11 74 -8 4 -8 9 0 17 6 6 11 43 11 83 0 63 -2 72 -17 70 -16 -3 -18 -15 -14
-133 3 -133 -4 -213 -20 -213 -5 0 -9 39 -9 86 l0 85 -42 -3 -42 -3 -1 -245 0
-245 -23 -3 -23 -4 3 254 3 253 60 5 60 5 3 64 c2 35 0 71 -4 80 -4 9 -8 33
-8 54 -2 32 1 37 20 37 17 0 20 -5 17 -24 -3 -13 1 -27 7 -31 9 -5 10 -2 6 13
-8 25 17 52 43 45 10 -3 23 1 27 9 6 9 10 1 12 -24 2 -21 7 -38 13 -38z"/>
<path d="M870 4053 c-13 -3 -15 -42 -15 -278 0 -151 3 -275 8 -275 4 0 7 92 7
204 0 209 6 279 21 254 5 -7 10 -112 10 -233 l2 -220 11 250 c6 138 9 258 7
268 -4 20 -29 35 -51 30z"/>
<path d="M512 2969 c-20 -6 -44 -25 -63 -52 -19 -26 -37 -41 -47 -39 -13 3
-14 1 -6 -8 9 -9 57 -3 202 26 105 21 189 41 186 46 -3 4 5 7 17 5 12 -1 24 4
27 12 3 8 0 11 -7 7 -6 -4 -11 -1 -11 6 0 11 -2 11 -9 0 -11 -18 -229 -22
-236 -5 -5 15 -8 15 -53 2z"/>
</g>
</svg>
