<?xml version="1.0" encoding="utf-8"?>
<!-- Generator: Adobe Illustrator 24.0.2, SVG Export Plug-In . SVG Version: 6.00 Build 0)  -->
<svg version="1.1" id="Layer_1" xmlns="http://www.w3.org/2000/svg" xmlns:xlink="http://www.w3.org/1999/xlink" x="0px" y="0px"
	 viewBox="0 0 1280 1024" style="enable-background:new 0 0 1280 1024;" xml:space="preserve">
<style type="text/css">
	.st0{fill:none;}
	.st1{fill:#FFFFFF;}
	.st2{font-family:'Gabriola';}
	.st3{font-size:131px;}
	.st4{fill:#F7931E;}
	.st5{fill:url(#SVGID_1_);}
	.st6{fill:#3DCFD3;}
	.st7{font-size:403.7533px;}
</style>
<g>
	<rect x="0.5" y="0.5" width="1279" height="1023"/>
	<path d="M1279,1v1022H1V1H1279 M1280,0H0v1024h1280V0L1280,0z"/>
</g>
<g>
	<rect x="288" y="697" class="st0" width="704" height="150"/>
	<text transform="matrix(1 0 0 1 288 783.8643)"><tspan x="0" y="0" class="st1 st2 st3">The Archwardens</tspan><tspan x="519.04" y="0" class="st1 st2 st3">-</tspan></text>
	<g>
		<circle cx="642" cy="364" r="207.5"/>
		<path class="st4" d="M642,169c52.09,0,101.06,20.28,137.89,57.11C816.72,262.94,837,311.91,837,364s-20.28,101.06-57.11,137.89
			C743.06,538.72,694.09,559,642,559s-101.06-20.28-137.89-57.11C467.28,465.06,447,416.09,447,364s20.28-101.06,57.11-137.89
			C540.94,189.28,589.91,169,642,169 M642,144c-121.5,0-220,98.5-220,220c0,121.5,98.5,220,220,220s220-98.5,220-220
			C862,242.5,763.5,144,642,144L642,144z"/>
	</g>
	<g>
		<linearGradient id="SVGID_1_" gradientUnits="userSpaceOnUse" x1="361" y1="365.6024" x2="851.9848" y2="365.6024">
			<stop  offset="0" style="stop-color:#FFFFFF"/>
			<stop  offset="1" style="stop-color:#000000"/>
		</linearGradient>
		<path class="st5" d="M602.08,114.53l218.73,449.9c-45.64,34.21-101.88,53.5-160.35,54.71c-2,0.04-3.94,0.06-5.93,0.06
			c-38.36,0-75.45-7.6-110.23-22.59c-33.51-14.44-63.16-34.95-88.12-60.96c-47.87-49.87-72.72-114.27-69.97-181.32
			c1.25-30.46,8.12-60.07,20.42-88.01c11.95-27.14,28.67-51.97,49.7-73.78C495.08,152.35,546.31,125.03,602.08,114.53 M616.49,87
			C616.49,87,616.49,87,616.49,87c-140.36,17.3-249.63,129.12-255.26,266.31C354.72,511.9,488.88,644.2,654.53,644.2
			c2.15,0,4.29-0.02,6.45-0.07c73.51-1.52,140.36-28.81,191.01-72.76L616.49,87C616.49,87,616.49,87,616.49,87L616.49,87z"/>
	</g>
	<text transform="matrix(1.2577 3.580960e-03 -2.847147e-03 1 486.8747 445.1797)" class="st6 st2 st7">A</text>
</g>
</svg>
